<svg xmlns="http://www.w3.org/2000/svg" width="132" height="19" viewBox="0 0 132 19">
    <g fill="none" fill-rule="evenodd" opacity=".62">
        <g fill="#000" fill-rule="nonzero">
            <g>
                <g transform="translate(-1588 -16) translate(1588 16.25) translate(39.76 1.656)">
                    <path d="M10.21.696H4.642C2.078.696 0 2.775 0 5.338v5.569c0 2.563 2.078 4.641 4.641 4.641h5.57c2.562 0 4.64-2.078 4.64-4.641v-5.57c0-2.562-2.078-4.64-4.64-4.64zm3.25 10.211c0 1.791-1.458 3.249-3.25 3.249H4.642c-1.791 0-3.249-1.458-3.249-3.249v-5.57c0-1.79 1.458-3.248 3.25-3.248h5.569c1.791 0 3.248 1.457 3.248 3.249v5.569z"/>
                    <path d="M7.426 4.41c-2.05 0-3.713 1.662-3.713 3.712 0 2.05 1.662 3.713 3.713 3.713 2.05 0 3.713-1.662 3.713-3.713 0-2.05-1.663-3.713-3.713-3.713zm0 6.033c-1.28 0-2.32-1.042-2.32-2.32 0-1.28 1.04-2.321 2.32-2.321 1.279 0 2.32 1.04 2.32 2.32 0 1.28-1.041 2.32-2.32 2.32z"/>
                    <circle cx="11.417" cy="4.131" r="1"/>
                </g>
                <g>
                    <path d="M14.22 1.68c-.402-.716-.84-.848-1.73-.898-.889-.06-3.125-.086-5.062-.086-1.941 0-4.178.026-5.067.085-.888.051-1.326.182-1.733.9C.213 2.395 0 3.628 0 5.798v.007C0 7.967.213 9.21.628 9.918c.407.716.844.846 1.732.906.89.052 3.127.083 5.068.083 1.937 0 4.173-.03 5.063-.082.89-.06 1.328-.19 1.73-.907.419-.708.63-1.95.63-4.11v-.005V5.8c0-2.171-.211-3.404-.63-4.12zM5.57 8.586V3.017l4.64 2.785-4.64 2.784z" transform="translate(-1588 -16) translate(1588 16.25) translate(0 3.973)"/>
                </g>
                <g transform="translate(-1588 -16) translate(1588 16.25) translate(116.512 .331)">
                    <path d="M0 5.338H3.321V15.549H0zM12.368 5.457c-.036-.01-.069-.023-.106-.033-.045-.01-.09-.019-.135-.026-.176-.035-.37-.06-.596-.06-1.936 0-3.164 1.408-3.569 1.952V5.338h-3.32v10.21h3.32v-5.57s2.51-3.495 3.57-.927v6.497h3.32v-6.89c0-1.543-1.058-2.828-2.484-3.2z"/>
                    <circle cx="1.624" cy="2.321" r="1.624"/>
                </g>
                <g>
                    <path d="M4.641 5.802V3.945c0-.512.416-.928.928-.928h.929V.697H4.64c-1.538 0-2.785 1.246-2.785 2.784v2.32H0v2.321h1.856v7.426h2.785V8.122h1.857l.928-2.32H4.64z" transform="translate(-1588 -16) translate(1588 16.25) translate(81.278 1.656)"/>
                </g>
            </g>
        </g>
    </g>
</svg>
